<svg width="3075" height="29025" viewBox="0 0 3075 29025" fill="none" xmlns="http://www.w3.org/2000/svg">
<rect width="3075" height="29025" fill="#000000"/>
<path id="Ellipse" d="M1527.5 1229.78C858.143 1236.91 871.006 1049.61 962.961 693.286C1131.81 271.411 1207.35 148.171 1515.94 144.884C1824.53 141.597 2381.9 616.954 2080.48 681.382C1523.72 875.187 1836.09 1226.5 1527.5 1229.78Z" fill="#254BD2"/>
<rect id="Rectangle 1" x="1118" y="86.5046" width="122.344" height="120.977" rx="10" transform="rotate(-47.7105 1118 86.5046)" fill="#3642AB"/>
<rect id="Rectangle 4" x="1323" y="2111" width="1193.56" height="1243.5" rx="200" transform="rotate(-47.7105 1323 2111)" fill="#3642AB"/>
<rect id="Rectangle 42" x="-82" y="4486.94" width="1193.56" height="1243.5" rx="200" transform="rotate(-47.7105 -82 4486.94)" fill="#3642AB"/>
<rect id="Rectangle 43" x="1321" y="7001.94" width="1193.56" height="1243.5" rx="200" transform="rotate(-47.7105 1321 7001.94)" fill="#3642AB"/>
<rect id="Rectangle 44" x="-27" y="9948.94" width="1193.56" height="1243.5" rx="200" transform="rotate(-47.7105 -27 9948.94)" fill="#3642AB"/>
<rect id="Rectangle 7" x="1436" y="2784.5" width="122.344" height="120.977" rx="10" transform="rotate(-47.7105 1436 2784.5)" fill="#3642AB"/>
<rect id="Rectangle 10" x="1574" y="3840.5" width="122.344" height="120.977" rx="10" transform="rotate(-47.7105 1574 3840.5)" fill="#3642AB"/>
<rect id="Rectangle 14" x="1135" y="5290.5" width="122.344" height="120.977" rx="10" transform="rotate(-47.7105 1135 5290.5)" fill="#3642AB"/>
<rect id="Rectangle 15" x="1593" y="5696.5" width="122.344" height="120.977" rx="10" transform="rotate(-47.7105 1593 5696.5)" fill="#3642AB"/>
<rect id="Rectangle 5" x="1355" y="1539.95" width="200" height="200" rx="10" transform="rotate(-47.7105 1355 1539.95)" fill="#3642AB"/>
<rect id="Rectangle 2" x="1791" y="109.149" width="59.2645" height="60.5424" rx="10" transform="rotate(-46.7253 1791 109.149)" fill="#3642AB"/>
<rect id="Rectangle 3" x="1119" y="1312.15" width="59.2645" height="60.5424" rx="10" transform="rotate(-46.7253 1119 1312.15)" fill="#3642AB"/>
<rect id="Rectangle 6" x="1113" y="2490.49" width="160" height="160" rx="10" transform="rotate(-46.7253 1113 2490.49)" fill="#3642AB"/>
<rect id="Rectangle 8" x="1308" y="3594.15" width="59.2645" height="60.5424" rx="10" transform="rotate(-46.7253 1308 3594.15)" fill="#3642AB"/>
<rect id="Rectangle 13" x="1236" y="5934.15" width="59.2645" height="60.5424" rx="10" transform="rotate(-46.7253 1236 5934.15)" fill="#3642AB"/>
<rect id="Rectangle 9" x="1817" y="3274.15" width="59.2645" height="60.5424" rx="10" transform="rotate(-46.7253 1817 3274.15)" fill="#3642AB"/>
<path id="Vector 3" d="M249 540.811C1066.67 1117.51 1608.65 -381.361 2749 527.209" stroke="black" stroke-width="6"/>
<path id="Vector 2" d="M249 821.464C1404.71 -99.3182 1926.95 1482.54 2749 797.14" stroke="black" stroke-width="9"/>
<path id="Vector 1" d="M235 896.156C1282.31 1679.55 1951.79 158.366 2735 874.583" stroke="black" stroke-width="3"/>
<rect id="Rectangle 16" x="1342" y="5139.16" width="180" height="180" rx="10" transform="rotate(-47.7105 1342 5139.16)" fill="#3642AB"/>
<rect id="Rectangle 17" x="1416" y="6207.5" width="122.344" height="120.977" rx="10" transform="rotate(-47.7105 1416 6207.5)" fill="#3642AB"/>
<rect id="Rectangle 18" x="989" y="6774.5" width="122.344" height="120.977" rx="10" transform="rotate(-47.7105 989 6774.5)" fill="#3642AB"/>
<rect id="Rectangle 19" x="1115" y="8713.5" width="122.344" height="120.977" rx="10" transform="rotate(-47.7105 1115 8713.5)" fill="#3642AB"/>
<rect id="Rectangle 20" x="1573" y="9119.5" width="122.344" height="120.977" rx="10" transform="rotate(-47.7105 1573 9119.5)" fill="#3642AB"/>
<rect id="Rectangle 23" x="1226" y="5700.49" width="160" height="160" rx="10" transform="rotate(-46.7253 1226 5700.49)" fill="#3642AB"/>
<rect id="Rectangle 24" x="1133" y="7842.49" width="160" height="160" rx="10" transform="rotate(-46.7253 1133 7842.49)" fill="#3642AB"/>
<rect id="Rectangle 26" x="1577" y="8229.15" width="59.2645" height="60.5424" rx="10" transform="rotate(-46.7253 1577 8229.15)" fill="#3642AB"/>
<rect id="Rectangle 29" x="1342" y="8279.16" width="180" height="180" rx="10" transform="rotate(-47.7105 1342 8279.16)" fill="#3642AB"/>
<rect id="Rectangle 31" x="1554" y="10403.5" width="122.344" height="120.977" rx="10" transform="rotate(-47.7105 1554 10403.5)" fill="#3642AB"/>
<rect id="Rectangle 32" x="1115" y="11853.5" width="122.344" height="120.977" rx="10" transform="rotate(-47.7105 1115 11853.5)" fill="#3642AB"/>
<rect id="Rectangle 33" x="1578" y="11723.5" width="122.344" height="120.977" rx="10" transform="rotate(-47.7105 1578 11723.5)" fill="#3642AB"/>
<path id="Rectangle 34" d="M1517.82 7753.73C1513.74 7750.01 1513.44 7743.69 1517.15 7739.6L1638.27 7606.45C1641.99 7602.36 1648.31 7602.06 1652.4 7605.78L1785.55 7726.9C1789.64 7730.61 1789.94 7736.94 1786.22 7741.02L1665.1 7874.18C1661.39 7878.26 1655.06 7878.56 1650.98 7874.85L1517.82 7753.73Z" fill="#3642AB"/>
<rect id="Rectangle 35" x="1190" y="7388.15" width="59.2645" height="60.5424" rx="10" transform="rotate(-46.7253 1190 7388.15)" fill="#3642AB"/>
<rect id="Rectangle 36" x="1659" y="9447.49" width="160" height="160" rx="10" transform="rotate(-46.7253 1659 9447.49)" fill="#3642AB"/>
<rect id="Rectangle 37" x="1133" y="10982.5" width="160" height="160" rx="10" transform="rotate(-46.7253 1133 10982.5)" fill="#3642AB"/>
<rect id="Rectangle 40" x="1216" y="12497.1" width="59.2645" height="60.5424" rx="10" transform="rotate(-46.7253 1216 12497.1)" fill="#3642AB"/>
<rect id="Rectangle 45" x="1237" y="12453.9" width="1193.56" height="1243.5" rx="200" transform="rotate(-47.7105 1237 12453.9)" fill="#3642AB"/>
<rect id="Rectangle 46" x="170" y="15474.9" width="1193.56" height="1243.5" rx="200" transform="rotate(-47.7105 170 15474.9)" fill="#3642AB"/>
<rect id="Rectangle 47" x="1312" y="14239.5" width="122.344" height="120.977" rx="10" transform="rotate(-47.7105 1312 14239.5)" fill="#3642AB"/>
<rect id="Rectangle 48" x="1770" y="14645.5" width="122.344" height="120.977" rx="10" transform="rotate(-47.7105 1770 14645.5)" fill="#3642AB"/>
<rect id="Rectangle 49" x="1774" y="13755.1" width="59.2645" height="60.5424" rx="10" transform="rotate(-46.7253 1774 13755.1)" fill="#3642AB"/>
<rect id="Rectangle 50" x="1539" y="13805.2" width="180" height="180" rx="10" transform="rotate(-47.7105 1539 13805.2)" fill="#3642AB"/>
<rect id="Rectangle 51" x="1751" y="15929.5" width="122.344" height="120.977" rx="10" transform="rotate(-47.7105 1751 15929.5)" fill="#3642AB"/>
<rect id="Rectangle 52" x="1312" y="17379.5" width="122.344" height="120.977" rx="10" transform="rotate(-47.7105 1312 17379.5)" fill="#3642AB"/>
<rect id="Rectangle 53" x="1775" y="17249.5" width="122.344" height="120.977" rx="10" transform="rotate(-47.7105 1775 17249.5)" fill="#3642AB"/>
<rect id="Rectangle 54" x="1856" y="14973.5" width="160" height="160" rx="10" transform="rotate(-46.7253 1856 14973.5)" fill="#3642AB"/>
<rect id="Rectangle 55" x="1330" y="16508.5" width="160" height="160" rx="10" transform="rotate(-46.7253 1330 16508.5)" fill="#3642AB"/>
<rect id="Rectangle 56" x="1434" y="17979.9" width="1193.56" height="1243.5" rx="200" transform="rotate(-47.7105 1434 17979.9)" fill="#3642AB"/>
<rect id="Rectangle 57" x="170" y="20619.9" width="1193.56" height="1243.5" rx="200" transform="rotate(-47.7105 170 20619.9)" fill="#3642AB"/>
<rect id="Rectangle 58" x="1312" y="19384.5" width="122.344" height="120.977" rx="10" transform="rotate(-47.7105 1312 19384.5)" fill="#3642AB"/>
<rect id="Rectangle 59" x="1770" y="19790.5" width="122.344" height="120.977" rx="10" transform="rotate(-47.7105 1770 19790.5)" fill="#3642AB"/>
<rect id="Rectangle 60" x="1774" y="18900.1" width="59.2645" height="60.5424" rx="10" transform="rotate(-46.7253 1774 18900.1)" fill="#3642AB"/>
<rect id="Rectangle 61" x="1539" y="18950.2" width="180" height="180" rx="10" transform="rotate(-47.7105 1539 18950.2)" fill="#3642AB"/>
<rect id="Rectangle 62" x="1751" y="21074.5" width="122.344" height="120.977" rx="10" transform="rotate(-47.7105 1751 21074.5)" fill="#3642AB"/>
<rect id="Rectangle 63" x="1312" y="22524.5" width="122.344" height="120.977" rx="10" transform="rotate(-47.7105 1312 22524.5)" fill="#3642AB"/>
<rect id="Rectangle 64" x="1775" y="22394.5" width="122.344" height="120.977" rx="10" transform="rotate(-47.7105 1775 22394.5)" fill="#3642AB"/>
<rect id="Rectangle 65" x="1856" y="20118.5" width="160" height="160" rx="10" transform="rotate(-46.7253 1856 20118.5)" fill="#3642AB"/>
<rect id="Rectangle 66" x="1330" y="21653.5" width="160" height="160" rx="10" transform="rotate(-46.7253 1330 21653.5)" fill="#3642AB"/>
<rect id="Rectangle 67" x="1434" y="23124.9" width="1193.56" height="1243.5" rx="200" transform="rotate(-47.7105 1434 23124.9)" fill="#3642AB"/>
<rect id="Rectangle 68" x="149" y="25764.9" width="1193.56" height="1243.5" rx="200" transform="rotate(-47.7105 149 25764.9)" fill="#3642AB"/>
<rect id="Rectangle 69" x="1291" y="24529.5" width="122.344" height="120.977" rx="10" transform="rotate(-47.7105 1291 24529.5)" fill="#3642AB"/>
<rect id="Rectangle 70" x="1749" y="24935.5" width="122.344" height="120.977" rx="10" transform="rotate(-47.7105 1749 24935.5)" fill="#3642AB"/>
<rect id="Rectangle 71" x="1753" y="24045.1" width="59.2645" height="60.5424" rx="10" transform="rotate(-46.7253 1753 24045.1)" fill="#3642AB"/>
<rect id="Rectangle 72" x="1518" y="24095.2" width="180" height="180" rx="10" transform="rotate(-47.7105 1518 24095.2)" fill="#3642AB"/>
<rect id="Rectangle 73" x="1730" y="26219.5" width="122.344" height="120.977" rx="10" transform="rotate(-47.7105 1730 26219.5)" fill="#3642AB"/>
<rect id="Rectangle 74" x="1291" y="27669.5" width="122.344" height="120.977" rx="10" transform="rotate(-47.7105 1291 27669.5)" fill="#3642AB"/>
<rect id="Rectangle 75" x="1754" y="27539.5" width="122.344" height="120.977" rx="10" transform="rotate(-47.7105 1754 27539.5)" fill="#3642AB"/>
<rect id="Rectangle 76" x="1835" y="25263.5" width="160" height="160" rx="10" transform="rotate(-46.7253 1835 25263.5)" fill="#3642AB"/>
<rect id="Rectangle 77" x="1309" y="26798.5" width="160" height="160" rx="10" transform="rotate(-46.7253 1309 26798.5)" fill="#3642AB"/>
<rect id="Rectangle 78" x="1413" y="28269.9" width="1193.56" height="1243.5" rx="200" transform="rotate(-47.7105 1413 28269.9)" fill="#3642AB"/>
</svg>
